HIERARCHY
ROOT Hips
{
	OFFSET -0.179506 -22.333345 2.821913
	CHANNELS 6 Xposition Yposition Zposition Zrotation Yrotation Xrotation 
	JOINT LeftUpLeg
	{
		OFFSET 6.951974 -9.140623 -0.681533
		CHANNELS 3 Zrotation Yrotation Xrotation
		JOINT LeftLeg
		{
			OFFSET 3.427654 -37.519855 -0.449580
			CHANNELS 3 Zrotation Yrotation Xrotation
			JOINT LeftFoot
			{
				OFFSET -1.359570 -39.796059 -4.369333
				CHANNELS 3 Zrotation Yrotation Xrotation
				JOINT LeftToe
				{
					OFFSET 2.635814 -5.579078 11.928840
					CHANNELS 3 Zrotation Yrotation Xrotation
					End Site
					{
						OFFSET 0.000000 0.000000 0.000000
					}
				}
			}
		}
	}
	JOINT RightUpLeg
	{
		OFFSET -6.767048 -9.052170 -0.431982
		CHANNELS 3 Zrotation Yrotation Xrotation
		JOINT RightLeg
		{
			OFFSET -3.829005 -38.256897 -0.885003
			CHANNELS 3 Zrotation Yrotation Xrotation
			JOINT RightFoot
			{
				OFFSET 1.577377 -39.841461 -4.231180
				CHANNELS 3 Zrotation Yrotation Xrotation
				JOINT RightToe
				{
					OFFSET -2.537174 -4.814398 12.334795
					CHANNELS 3 Zrotation Yrotation Xrotation
					End Site
					{
						OFFSET 0.000000 0.000000 0.000000
					}
				}
			}
		}
	}
	JOINT Spine
	{
		OFFSET -0.253288 10.896323 -2.669631
		CHANNELS 3 Zrotation Yrotation Xrotation
		JOINT Spine1
		{
			OFFSET 0.548704 13.518043 0.109247
			CHANNELS 3 Zrotation Yrotation Xrotation
			JOINT Spine2
			{
				OFFSET 0.145701 5.292222 2.542457
				CHANNELS 3 Zrotation Yrotation Xrotation
				JOINT Neck
				{
					OFFSET -0.277840 21.387037 -4.285703
					CHANNELS 3 Zrotation Yrotation Xrotation
					JOINT Head
					{
						OFFSET 0.515184 6.496960 5.134897
						CHANNELS 3 Zrotation Yrotation Xrotation
						End Site
						{
							OFFSET 0.000000 0.000000 0.000000
						}
					}
				}
				JOINT LeftShoulder
				{
					OFFSET 7.884473 12.174932 -3.408961
					CHANNELS 3 Zrotation Yrotation Xrotation
					JOINT LeftArm
					{
						OFFSET 9.097692 3.046888 -0.886815
						CHANNELS 3 Zrotation Yrotation Xrotation
						JOINT LeftForeArm
						{
							OFFSET 25.961220 -1.277207 -2.745643
							CHANNELS 3 Zrotation Yrotation Xrotation
							JOINT LeftHand
							{
								OFFSET 24.923361 0.898606 -0.117091
								CHANNELS 3 Zrotation Yrotation Xrotation
								End Site
								{
									OFFSET 0.000000 0.000000 0.000000
								}
							}
						}
					}
				}
				JOINT RightShoulder
				{
					OFFSET -8.175920 11.883285 -3.861528
					CHANNELS 3 Zrotation Yrotation Xrotation
					JOINT RightArm
					{
						OFFSET -9.601238 3.255117 -0.914307
						CHANNELS 3 Zrotation Yrotation Xrotation
						JOINT RightForeArm
						{
							OFFSET -25.374195 -1.332924 -2.140099
							CHANNELS 3 Zrotation Yrotation Xrotation
							JOINT RightHand
							{
								OFFSET -25.529810 0.777228 -0.555919
								CHANNELS 3 Zrotation Yrotation Xrotation
								End Site
								{
									OFFSET 0.000000 0.000000 0.000000
								}
							}
						}
					}
				}
			}
		}
	}
}
MOTION
Frames: 10
Frame Time: 0.033333
-22.363556 -14.255716 75.160576 155.248962 -1.065473 89.801588 27.069338 6.770679 -21.871506 -14.672510 -7.673058 57.061415 -5.797687 10.346537 -35.827300 nan nan nan -16.115703 -14.262531 -57.347285 1.418135 -21.118451 78.428547 -1.257552 -6.071029 -21.029637 nan nan nan -7.544983 -0.153808 37.178651 4.819793 -1.483918 4.147661 4.917414 -6.669942 -3.513733 8.461024 -13.049844 -9.846476 14.823560 -25.898210 -21.724591 -20.266443 -10.087878 -0.542672 -49.261018 -29.748969 15.142634 51.484943 -60.809801 -43.385965 -2.417105 -31.110445 0.411811 24.672478 7.644734 0.418048 43.345213 -18.990787 8.875605 -4.131497 25.210586 16.568917 23.707125 14.851929 -9.247255 
-21.118572 -13.446280 75.583382 154.488525 -1.465636 89.774847 27.269320 6.675133 -19.162353 -14.414199 -8.100688 54.742582 -6.234682 10.199284 -35.466460 nan nan nan -16.733278 -14.943069 -57.446534 1.339348 -21.339222 77.769386 -0.816301 -5.643776 -19.202675 nan nan nan -7.239695 -0.919995 36.794527 4.770138 -1.288067 3.987154 4.658530 -6.729272 -3.264555 8.215524 -12.641313 -10.148843 13.778494 -25.712461 -21.164560 -19.986356 -9.524929 -0.575882 -50.535571 -29.124068 15.900620 55.402481 -62.473590 -47.118152 -3.396834 -31.366760 0.340847 24.301318 6.704517 0.465348 42.855728 -19.805173 8.769109 -3.181521 25.302190 17.213828 25.950794 14.216508 -8.352781 
-19.793114 -12.651259 76.071831 153.683907 -1.889594 89.794960 27.465447 6.521834 -16.263875 -14.147796 -8.569027 52.009286 -6.610568 10.159320 -34.977961 nan nan nan -17.287698 -15.576442 -57.496410 1.412192 -21.624316 77.022204 -0.216768 -5.142737 -17.098264 nan nan nan -7.025403 -1.666861 36.265682 4.721603 -1.067766 3.946904 4.394383 -6.681657 -3.114635 7.937416 -12.382810 -10.213718 13.085864 -25.672763 -21.024414 -19.822213 -8.876115 -0.663244 -51.663396 -28.416038 16.718783 59.164384 -64.082337 -50.690157 -4.362464 -31.568653 0.386209 23.985610 5.655411 0.605825 42.447673 -20.656415 8.650386 -2.258623 25.717166 17.864157 27.966656 13.649539 -7.712035 
-18.386087 -11.860768 76.599854 152.869693 -2.293206 90.018885 27.652739 6.508914 -13.413857 -13.830291 -9.177133 49.037889 -6.919488 10.086386 -34.262423 nan nan nan -17.725800 -16.228172 -57.608140 1.264523 -22.111902 76.279024 0.360502 -4.979110 -15.210695 nan nan nan -6.839046 -2.486406 35.350506 4.723102 -0.846590 4.009693 4.184171 -6.582053 -2.828646 7.678563 -11.820772 -10.311468 11.962922 -25.362226 -20.472851 -20.028942 -8.179647 -0.817942 -52.355598 -27.482888 17.231188 63.249376 -65.801047 -55.101257 -5.981776 -31.527886 1.384950 23.794879 4.687504 0.823031 41.933816 -21.541954 8.498034 -1.475111 26.446611 18.309594 30.020107 12.963080 -6.927979 
-16.899994 -11.078821 77.163254 152.077991 -2.763313 90.320807 27.742362 6.544686 -10.552306 -13.266314 -9.802479 45.839384 -7.291264 9.737913 -33.175768 nan nan nan -18.202853 -16.883228 -57.618710 0.912354 -22.762157 75.546715 0.599918 -4.933495 -13.891579 nan nan nan -6.632679 -3.299640 34.325558 4.643416 -0.647088 4.060322 3.959534 -6.577988 -2.619003 7.307799 -11.381506 -10.093970 11.073999 -25.071920 -20.211646 -20.180322 -7.386833 -0.868359 -52.903197 -26.390595 17.696743 67.560330 -67.343626 -59.863695 -7.548014 -31.470134 2.438992 23.542245 3.755041 1.084207 41.677379 -22.332153 8.513428 -0.795120 27.117295 18.748669 31.975718 12.514690 -6.514254 
-15.368143 -10.289849 77.770561 151.338362 -3.302064 90.619678 27.700068 6.566509 -7.742797 -12.521283 -10.376963 42.574787 -7.760168 9.200564 -31.562182 nan nan nan -18.763880 -17.576331 -57.440430 0.689827 -23.458078 74.702441 0.887138 -4.613142 -12.545416 nan nan nan -6.304997 -4.116392 33.385003 4.487066 -0.531004 3.872659 3.649061 -6.587919 -2.377719 6.924615 -10.885387 -9.710135 10.286993 -24.778596 -20.041367 -20.127991 -6.633635 -0.944687 -53.776885 -25.206883 18.239844 71.266614 -68.511191 -63.201158 -8.199193 -31.714196 2.603253 23.214879 2.892088 1.279769 41.579554 -23.135314 8.471398 0.016115 27.598889 19.288228 33.703202 12.362241 -6.191622 
-13.792822 -9.498971 78.413742 150.726581 -3.818930 90.978854 27.600125 6.627322 -5.223159 -11.726335 -11.022428 39.504600 -8.411629 8.622029 -29.535557 nan nan nan -19.266016 -18.335860 -57.121699 0.717006 -24.115370 73.668360 1.433166 -4.106301 -11.108793 nan nan nan -5.857666 -4.964371 32.384936 4.370417 -0.515815 3.601606 3.333233 -6.601810 -2.089929 6.456900 -10.527419 -9.304497 9.472214 -24.365131 -19.852465 -20.059729 -5.893170 -1.047246 -54.748123 -23.925382 18.702223 74.368415 -69.528143 -65.734816 -8.385043 -32.137735 2.216739 22.817086 2.001282 1.241167 41.303418 -23.883719 8.460056 1.242806 27.938251 20.206951 34.891624 12.286101 -5.846706 
-12.140215 -8.717577 79.075165 150.014356 -4.372507 91.465394 27.443371 6.809988 -2.872365 -10.877785 -11.587725 36.520151 -9.262172 8.044853 -26.995003 nan nan nan -19.660448 -18.948178 -56.844141 0.944094 -24.759721 72.482423 1.862475 -3.661966 -9.999305 nan nan nan -5.464933 -5.690464 31.060154 4.296156 -0.479172 3.735839 3.031072 -6.564783 -2.062945 5.855160 -10.448689 -8.574734 8.949392 -23.874355 -19.877128 -20.155561 -5.193765 -0.999044 -55.227736 -22.484288 19.037460 77.736706 -70.552718 -68.656524 -8.686050 -32.201662 1.775200 22.434030 1.109475 1.090438 41.025315 -24.524197 8.636209 2.493751 28.024340 21.120840 35.276916 12.241220 -5.668310 
-10.390428 -7.924096 79.768143 149.162686 -4.991607 91.831050 27.242627 7.063190 -0.308669 -9.927071 -12.085869 33.397252 -10.179572 7.514947 -23.909837 nan nan nan -19.984831 -19.382825 -56.403055 1.180537 -25.258547 71.351203 1.876332 -3.340100 -9.630746 nan nan nan -5.158290 -6.312957 29.740907 4.129350 -0.420561 4.182598 2.752595 -6.486551 -2.239078 5.245273 -10.323846 -7.625034 8.581897 -23.413519 -20.026498 -20.250229 -4.506098 -0.795969 -55.464319 -20.995365 19.278577 81.156681 -71.400595 -71.573554 -9.102495 -32.078574 1.468695 22.229157 0.383685 1.346646 41.063744 -24.939623 8.559088 3.266226 28.007277 21.322709 35.691708 12.135808 -5.610977 
-8.574812 -7.127803 80.501305 148.284150 -5.696445 92.024876 26.969405 7.205905 2.351446 -9.041410 -12.425718 30.316314 -11.026388 7.245478 -20.453975 nan nan nan -20.324347 -19.716951 -55.656057 1.326410 -25.641426 70.284962 1.699200 -3.085285 -9.908030 nan nan nan -4.957814 -6.759304 28.588533 3.945819 -0.374292 4.758273 2.560192 -6.436922 -2.503082 4.759501 -10.118593 -6.714296 8.180837 -22.958517 -20.240918 -20.269685 -3.792925 -0.530015 -55.703105 -19.652211 19.533816 83.688060 -72.203751 -73.557632 -9.142264 -32.060182 1.203710 22.199391 -0.180474 1.826620 41.388541 -25.301337 8.557443 3.469226 28.072025 20.881525 36.459629 12.289408 -5.773909 
